<svg id="book-top" xmlns="http://www.w3.org/2000/svg" xmlns:xlink="http://www.w3.org/1999/xlink" width="200" height="300" viewBox="0 0 200 300">
  <defs>
    <clipPath id="clip-path">
      <path id="book-bg" d="M10,0H190a10,10,0,0,1,10,10V290a10,10,0,0,1-10,10H10A10,10,0,0,1,0,290V10A10,10,0,0,1,10,0Z" fill="#857070"/>
    </clipPath>
    <linearGradient id="linear-gradient" x1="0.528" y1="-1.103" x2="0.532" y2="0.595" gradientUnits="objectBoundingBox">
      <stop offset="0" stop-color="#e6c4b7"/>
      <stop offset="0.215" stop-color="#edd2c7"/>
      <stop offset="0.594" stop-color="#fbece6"/>
      <stop offset="1" stop-color="#fff4f0"/>
    </linearGradient>
    <linearGradient id="linear-gradient-3" x1="0.5" y1="1" x2="0.5" gradientUnits="objectBoundingBox">
      <stop offset="0" stop-color="gray" stop-opacity="0.251"/>
      <stop offset="0.54" stop-color="gray" stop-opacity="0.122"/>
      <stop offset="1" stop-color="gray" stop-opacity="0.102"/>
    </linearGradient>
    <linearGradient id="linear-gradient-4" x1="0.5" y1="1" x2="0.5" y2="0" xlink:href="#linear-gradient-3"/>
    <linearGradient id="linear-gradient-6" x1="0.5" y1="1" x2="0.5" y2="0" xlink:href="#linear-gradient-3"/>
    <linearGradient id="linear-gradient-7" x1="0.5" y1="1" x2="0.5" y2="0" xlink:href="#linear-gradient-3"/>
    <linearGradient id="linear-gradient-8" x1="0.5" y1="0.999" x2="0.5" y2="0" xlink:href="#linear-gradient-3"/>
    <linearGradient id="linear-gradient-10" x1="0.5" y1="1" x2="0.5" y2="0" xlink:href="#linear-gradient-3"/>
    <linearGradient id="linear-gradient-11" x1="0.5" y1="1" x2="0.5" y2="0" xlink:href="#linear-gradient-3"/>
    <linearGradient id="linear-gradient-13" x1="0.499" y1="1" x2="0.499" y2="0" xlink:href="#linear-gradient-3"/>
    <linearGradient id="linear-gradient-14" x1="0.5" y1="1" x2="0.5" y2="0" xlink:href="#linear-gradient-3"/>
    <linearGradient id="linear-gradient-16" x1="0.499" y1="0.996" x2="0.499" y2="0" xlink:href="#linear-gradient-3"/>
    <linearGradient id="linear-gradient-17" x1="0.5" y1="1" x2="0.5" y2="0" xlink:href="#linear-gradient-3"/>
    <linearGradient id="linear-gradient-18" x1="0.5" y1="1" x2="0.5" y2="0" xlink:href="#linear-gradient-3"/>
    <linearGradient id="linear-gradient-20" x1="0.499" y1="1" x2="0.499" y2="0" xlink:href="#linear-gradient-3"/>
    <linearGradient id="linear-gradient-21" x1="0.5" y1="1" x2="0.5" y2="0" xlink:href="#linear-gradient-3"/>
    <linearGradient id="linear-gradient-22" x1="0.5" y1="0.999" x2="0.5" y2="0" xlink:href="#linear-gradient-3"/>
    <linearGradient id="linear-gradient-23" x1="0.5" y1="1" x2="0.5" y2="0" xlink:href="#linear-gradient-3"/>
    <linearGradient id="linear-gradient-24" x1="0.5" y1="1" x2="0.5" y2="0" xlink:href="#linear-gradient-3"/>
  </defs>
  <g id="Mask_Group_2" data-name="Mask Group 2" clip-path="url(#clip-path)">
    <path id="book-bg-2" data-name="book-bg" d="M10,0H190a10,10,0,0,1,10,10V290a10,10,0,0,1-10,10H10A10,10,0,0,1,0,290V10A10,10,0,0,1,10,0Z" fill="#857070"/>
    <text id="YOUNG_GIRL" data-name="YOUNG 
GIRL" transform="translate(28 221)" fill="#fff" stroke="#fff" stroke-width="0.2" font-size="24" font-family="QanelasSoftDEMO-UltraLight, Qanelas Soft DEMO" font-weight="100"><tspan x="0" y="0">YOUNG </tspan><tspan x="0" y="29">GIRL</tspan></text>
    <g id="Group_7" data-name="Group 7" transform="translate(-9 -18)">
      <path id="frank" d="M-50.021,23.849a3.8,3.8,0,0,0,2.78-1.668c2.363-2.85,3.615-7.994,3.615-15.292A46.883,46.883,0,0,0-45.086-4.65a12.008,12.008,0,0,0,4.032.7,7.743,7.743,0,0,0,7.438-4.379l.07-.278c0-.487-.348-.7-1.043-.7a.525.525,0,0,0-.487.278c-1.182,2.085-2.294,3.2-3.476,3.267-1.182.139-1.946.209-2.363.209A12.266,12.266,0,0,1-45.781-6.6a15.16,15.16,0,0,0-2.363-4.171c1.043-4.588,1.807-7.855,2.294-9.87a11.556,11.556,0,0,0,5.63-3.754,21.914,21.914,0,0,0,5-13.693c0-3.615-.765-5.352-2.294-5.352-2.224,0-4.727,2.363-7.438,7.229a61.722,61.722,0,0,0-5.422,13.624,10.714,10.714,0,0,1-2.989-1.807,1.289,1.289,0,0,0-.487-.139.737.737,0,0,0-.834.834.849.849,0,0,0,.278.626,13.024,13.024,0,0,0,3.615,2.085c-.9,3.545-1.46,6.047-1.738,7.577l-.487-.07c-1.112.07-1.6.626-1.6,1.46a4.031,4.031,0,0,0,1.321,2.433A86.864,86.864,0,0,0-54.539-.9a92.478,92.478,0,0,0-.626,9.314,58.268,58.268,0,0,0,.556,7.924q1.043,5.943,2.5,6.673A4.543,4.543,0,0,0-50.021,23.849Zm4.657-46.363A127.764,127.764,0,0,1-41.333-35.86c1.321-3.406,2.294-5.213,2.78-5.352.556-.139.834-.278.9-.278.556,0,.834.973.834,2.85A20.67,20.67,0,0,1-41.472-25.5,9.642,9.642,0,0,1-45.364-22.514ZM-48.005-7.639l-.626-.348.07-.626A6.947,6.947,0,0,1-48.005-7.639Zm-1.668,29.82c-1.112,0-1.668-2.155-1.738-6.395,0-4.935.834-12.3,2.433-22.035l.07-.07a16.94,16.94,0,0,0,1.946.973A29.121,29.121,0,0,1-45.434,2.3c.07,2.224.139,3.823.139,4.727,0,5.839-.765,10.148-2.363,13C-48.423,21.485-49.118,22.181-49.674,22.181Zm17.795-2.224c2.016,0,4.1-1.46,6.325-3.893C-19.3,9.113-11.165-4.928-9.636-8.473v-.209c0-.417-.556-.7-.973-.7-.278,0-.487.07-.556.278-.834,2.085-9.87,18-15.57,24.259-1.6,1.738-2.85,2.572-3.615,2.572a.9.9,0,0,1-.9-.626,2.593,2.593,0,0,1-.139-.834c0-3.962,6.047-15.64,6.812-19.6a5.713,5.713,0,0,0,.139-1.46c0-3.893-3.823-4.518-6.951-5.63,2.155-1.946,5.422-7.577,5.422-11.261,0-1.39-.417-2.5-1.6-2.989a2.882,2.882,0,0,0-1.112-.209c-3.684,0-8.758,6.534-8.758,11.539a5.062,5.062,0,0,0,2.711,4.8c2.572,1.46,4.935,2.433,4.935,4.518v.417c-.7,3.545-6.256,12.859-6.256,18.7,0,1.807.487,3.336,1.946,4.171A4.615,4.615,0,0,0-31.879,19.956Zm-1.182-31.071a3.622,3.622,0,0,1-1.6-3.267c0-3.684,3.615-8.48,5.63-8.48a.882.882,0,0,1,.417.07,1.72,1.72,0,0,1,.9,1.738C-27.709-18.135-31.045-12.713-33.061-11.115ZM6.768,5.081C9.41,4.734,12.051,3.065,14.693.007a41.939,41.939,0,0,0,5.839-8.341l.07-.348c0-.417-.209-.626-.7-.626a1,1,0,0,0-.9.556,52.888,52.888,0,0,1-4.379,6.6C12.538.563,10.452,2.162,8.3,2.787c-.9,0-1.39-.765-1.39-2.224,0-2.78,1.321-8.272,3.893-16.543L11.843-19.8c0-.487-.765-.765-2.294-.765-1.6,0-2.5.278-2.572.765-.139.556-.834,2.989-2.155,7.368v.07C1.9-6.04-1.295-1.453-4.84,1.536a5.455,5.455,0,0,1-2.711,1.39c-.9,0-1.321-.9-1.321-2.641,0-2.85.973-6.186,2.919-10.079,2.016-4.24,3.545-6.742,4.727-7.577a5.607,5.607,0,0,1,2.433-1.182c1.043,0,1.529.7,1.529,2.155A6.887,6.887,0,0,1,1-11.81a4.719,4.719,0,0,1-.834.834.841.841,0,0,0-.417.626c0,.626.209.973.7.973.417,0,.973-.487,1.738-1.39a8.08,8.08,0,0,0,2.155-5.491,3.857,3.857,0,0,0-1.321-3.128A4.668,4.668,0,0,0-.113-20.5c-3.962,0-7.368,2.919-10.287,8.689a24.857,24.857,0,0,0-2.085,9.8c.209,4.727,1.668,7.09,4.31,7.09,1.321,0,2.85-.7,4.588-2.155A37.346,37.346,0,0,0,3.154-5.832,22.283,22.283,0,0,0,2.528-.9a11.2,11.2,0,0,0,.278,2.711C3.154,3.9,4.475,5.012,6.768,5.081Zm12.442.07c.9-.07,1.46-.278,1.668-.765Q21.713.215,27.76-9.794q4.9-8.341,7.3-8.341c.626,0,.973.556.973,1.668A34.271,34.271,0,0,1,34.92-10.42a43.482,43.482,0,0,0-1.668,9.87,10.652,10.652,0,0,0,.417,3.128q.73,2.4,3.754,2.5c2.641-.348,5.283-2.016,7.994-5.074a38.6,38.6,0,0,0,5.769-8.341l.07-.348c0-.417-.209-.626-.7-.626a1.1,1.1,0,0,0-.9.556,40.709,40.709,0,0,1-4.379,6.6c-2.085,2.711-4.171,4.31-6.325,4.935h-.209c-.834,0-1.182-.626-1.182-1.807A38.94,38.94,0,0,1,38.6-5.9a44.96,44.96,0,0,0,1.46-9.8c0-2.989-1.112-4.588-3.267-4.8-2.85,0-6.256,3.267-10.148,9.731-1.6,2.641-2.85,4.8-3.615,6.395l-.278.487,3.406-14.875c0-.556-.348-.973-1.043-1.321a4.943,4.943,0,0,0-2.224-.487,1.427,1.427,0,0,0-1.46.765L16.083,3.76c0,.417.278.765.973,1.043A6.664,6.664,0,0,0,19.211,5.151Zm41.358,0c2.224,0,5.144-1.807,8.55-5.491a46.366,46.366,0,0,0,5.7-7.924l.07-.209q0-.834-1.043-.834a.6.6,0,0,0-.487.278,44.42,44.42,0,0,1-5.7,7.507c-1.807,1.877-3.336,2.78-4.588,2.78-1.946,0-3.684-2.224-5.074-6.742a26.678,26.678,0,0,0,4.588-2.78c4.588-3.128,6.882-6.117,6.882-8.828-.209-2.016-.765-3.058-1.668-3.267a13.889,13.889,0,0,0-1.6-.209c-1.321,0-2.85.765-4.518,2.224a35.156,35.156,0,0,0-7.09,10.009c.765-4.1,1.6-8.411,2.641-12.929a13.846,13.846,0,0,0,5.978-4.8,29.109,29.109,0,0,0,4.379-7.855,17.748,17.748,0,0,0,1.112-5.63,5.6,5.6,0,0,0-.7-2.989,2.836,2.836,0,0,0-2.572-1.6c-3.058,0-5.978,2.919-8.758,8.828a67.517,67.517,0,0,0-4.032,12.442A10.241,10.241,0,0,1,48.2-25.851a1.106,1.106,0,0,0-.7-.348c-.556,0-.9.278-.9.765a1.249,1.249,0,0,0,.278.626,13.009,13.009,0,0,0,5.352,3.615C50.977-15.285,49.587-7.778,48.057,1.4l-.278,2.224c0,.487.348.834.973,1.112a7.28,7.28,0,0,0,2.085.348c.973,0,1.6-.278,1.738-.834l.834-5.422c.209-.626.487-1.321.834-2.155.7,4.24,1.807,6.673,3.267,7.438A8.982,8.982,0,0,0,60.569,5.151Zm-2.78-28.5A88.667,88.667,0,0,1,61.334-35.1c1.6-4.171,2.711-6.464,3.336-6.812a2.873,2.873,0,0,1,1.321-.556c.765,0,1.182.834,1.182,2.641a15.518,15.518,0,0,1-1.46,5.839A28.506,28.506,0,0,1,62.1-27.45,12.966,12.966,0,0,1,57.789-23.348Zm-1.46,15.5a35.853,35.853,0,0,1,6.464-9.245c1.6-1.251,2.78-1.877,3.406-1.877q.626,0,.626.834c0,.765-.556,1.807-1.668,3.267A20.409,20.409,0,0,1,56.329-7.848Z" transform="translate(99.336 126.151)" fill="url(#linear-gradient)"/>
      <path id="anne" d="M41.1,25.62c.282,0,.4-.161.4-.444,0-.323-.121-.484-.4-.484a7.624,7.624,0,0,1-5.971-2.945,14.415,14.415,0,0,1-2.744-6.617,50.9,50.9,0,0,1-.646-7.868l.04-1.9c.847.04,1.695.121,2.582.242.363,0,.525-.161.525-.525,0-.242-.081-.363-.323-.4q-1.392-.182-2.784-.242c.2-4.4.565-8.553,1.009-12.548a68.432,68.432,0,0,0,.646-8.311c0-3.793-.484-5.689-1.412-5.729H30.929a12.045,12.045,0,0,0-5,1.533c-2.38,1.21-5.043,2.38-7.908,3.51A21.089,21.089,0,0,1,11.8-15.331H9.949A5.124,5.124,0,0,1,4.906-18.6a.482.482,0,0,0-.363-.323A.725.725,0,0,0,4.1-18.8a.6.6,0,0,0-.161.363l.04.161c.726,2.38,1.735,3.833,3.066,4.357a10.312,10.312,0,0,0,3.55.726c3.389,0,8.876-2.138,16.582-6.455a9.236,9.236,0,0,1,3.833-1.533c.605,0,.928.4.928,1.251,0,1.816-1.17,5.366-3.429,10.692C26.33-4.2,23.989.605,21.528,5.245Q11.18,7.787,4.986,13.96.992,18.075.871,19.649T.75,21.464a3.59,3.59,0,0,0,2.058,3.47,5.984,5.984,0,0,0,2.744.646c3.308,0,6.536-1.735,9.683-5.124a69.842,69.842,0,0,0,8.11-12.79c.363-.686.726-1.331,1.089-1.977A38.23,38.23,0,0,1,29.8,5.326h1.049l-.04,1.9a48.794,48.794,0,0,0,.605,7.908C32.543,21.868,35.771,25.378,41.1,25.62Zm-36.07-.928a3.735,3.735,0,0,1-1.775-.444A2.97,2.97,0,0,1,1.8,21.464c0-1.937,1.251-4.2,3.833-6.859A31.7,31.7,0,0,1,20.963,6.334l-.847,1.614a105.043,105.043,0,0,1-6.5,10.974c-1.937,2.623-3.631,4.236-5.124,4.842A10.1,10.1,0,0,1,5.027,24.692ZM24.958,4.68a102.968,102.968,0,0,0,7.383-17.349c-.121,1.493-.282,3.066-.484,4.8C31.413-3.994,31.09.081,30.889,4.4h-1.13A37.011,37.011,0,0,0,24.958,4.68Zm12.709,7.343c.525-.04.847-.161.968-.444q.484-2.421,3.994-8.231,2.844-4.842,4.236-4.842c.363,0,.565.323.565.968a19.892,19.892,0,0,1-.646,3.51,25.239,25.239,0,0,0-.968,5.729,6.183,6.183,0,0,0,.242,1.816,2.08,2.08,0,0,0,2.179,1.452,7.845,7.845,0,0,0,4.64-2.945A22.4,22.4,0,0,0,56.226,4.2l.04-.2c0-.242-.121-.363-.4-.363a.639.639,0,0,0-.524.323A23.629,23.629,0,0,1,52.8,7.787a7.474,7.474,0,0,1-3.672,2.865H49c-.484,0-.686-.363-.686-1.049a22.6,22.6,0,0,1,.605-3.994,26.1,26.1,0,0,0,.847-5.689c0-1.735-.646-2.663-1.9-2.784-1.654,0-3.631,1.9-5.891,5.648-.928,1.533-1.654,2.784-2.1,3.712l-.161.282L41.7-1.856c0-.323-.2-.565-.605-.767A2.869,2.869,0,0,0,39.805-2.9a.828.828,0,0,0-.847.444L35.851,11.216c0,.242.161.444.565.605A3.868,3.868,0,0,0,37.667,12.023Zm17.833,0c.525-.04.847-.161.968-.444q.484-2.421,3.994-8.231Q63.307-1.493,64.7-1.493c.363,0,.565.323.565.968a19.892,19.892,0,0,1-.646,3.51,25.239,25.239,0,0,0-.968,5.729,6.183,6.183,0,0,0,.242,1.816,2.08,2.08,0,0,0,2.179,1.452,7.845,7.845,0,0,0,4.64-2.945A22.4,22.4,0,0,0,74.059,4.2l.04-.2c0-.242-.121-.363-.4-.363a.639.639,0,0,0-.524.323A23.629,23.629,0,0,1,70.63,7.787a7.474,7.474,0,0,1-3.672,2.865h-.121c-.484,0-.686-.363-.686-1.049a22.6,22.6,0,0,1,.605-3.994A26.1,26.1,0,0,0,67.6-.081c0-1.735-.646-2.663-1.9-2.784-1.654,0-3.631,1.9-5.891,5.648-.928,1.533-1.654,2.784-2.1,3.712l-.161.282,1.977-8.634c0-.323-.2-.565-.605-.767A2.869,2.869,0,0,0,57.638-2.9a.828.828,0,0,0-.847.444L53.684,11.216c0,.242.161.444.565.605A3.868,3.868,0,0,0,55.5,12.023Zm20.617-.161c1.9,0,3.954-1.412,6.092-4.277.484-.605,1.251-1.735,2.3-3.308l.04-.2c0-.282-.161-.444-.524-.444a.491.491,0,0,0-.4.242,22.64,22.64,0,0,1-1.614,2.582A15.52,15.52,0,0,1,79.425,9.4a3.943,3.943,0,0,1-2.542,1.251c-1.009-.081-1.533-.525-1.574-1.372V8.231A13.561,13.561,0,0,1,76,4.317,8.185,8.185,0,0,0,79.3,2.7c1.735-1.372,2.623-2.744,2.623-4.035a1.242,1.242,0,0,0-.242-.767A2.136,2.136,0,0,0,79.909-2.9a5.089,5.089,0,0,0-2.38.605,9.332,9.332,0,0,0-3.591,4.317,13.335,13.335,0,0,0-1.291,5.366c0,2.34.847,3.793,2.542,4.4A3.613,3.613,0,0,0,76.117,11.862Zm.2-8.553a11.241,11.241,0,0,1,2.824-4.6,2.342,2.342,0,0,1,1.251-.484c.363,0,.565.161.565.484a2.159,2.159,0,0,1-.4,1.049A8.842,8.842,0,0,1,78.78,1.775,8.045,8.045,0,0,1,76.319,3.308Z" transform="translate(70.178 70.044)" fill="url(#linear-gradient)"/>
    </g>
    <text id="THE_DIARY_OF_A" data-name="THE DIARY 
OF A" transform="translate(31.5 167.5)" fill="#fffaf8" stroke="#fffaf8" stroke-width="0.8" font-size="12" font-family="QanelasSoftDEMO-UltraLight, Qanelas Soft DEMO" font-weight="100" letter-spacing="0.06em"><tspan x="0" y="0">THE DIARY </tspan><tspan x="0" y="20">OF A</tspan></text>
    <g id="Group_6" data-name="Group 6" transform="translate(93.304 129.528)">
      <path id="Path_66" data-name="Path 66" d="M645.72,611.3s-5.66-19.227,1.061-33.378a30.37,30.37,0,0,0,2.455-19.052,51.08,51.08,0,0,0-2.705-8.948" transform="translate(-533.095 -443.141)" fill="none" stroke="#535461" stroke-miterlimit="10" stroke-width="2"/>
      <path id="Path_67" data-name="Path 67" d="M645.783,491.265c0,2.355-4.268,9.191-4.268,9.191s-4.266-6.844-4.266-9.191a4.268,4.268,0,0,1,8.531,0Z" transform="translate(-528.152 -393.418)" fill="#beb1a4"/>
      <path id="Path_68" data-name="Path 68" d="M679.507,544.269c-1.28,1.979-8.577,5.4-8.577,5.4s.133-8.055,1.413-10.034a4.268,4.268,0,1,1,7.162,4.638Z" transform="translate(-554.824 -433.379)" fill="#beb1a4"/>
      <path id="Path_69" data-name="Path 69" d="M672.127,646.306c-2.1,1.065-10.127.329-10.127.329s4.18-6.888,6.284-7.947a4.268,4.268,0,0,1,3.841,7.62Z" transform="translate(-547.752 -513.109)" fill="#beb1a4"/>
      <path id="Path_70" data-name="Path 70" d="M653.505,728.438c-1.893,1.4-9.925,2.035-9.925,2.035s2.957-7.491,4.85-8.9a4.269,4.269,0,1,1,5.075,6.867Z" transform="translate(-533.165 -578.418)" fill="#beb1a4"/>
      <path id="Path_71" data-name="Path 71" d="M622.978,569.917c1.69,1.642,9.572,3.344,9.572,3.344s-1.929-7.822-3.619-9.464a4.268,4.268,0,1,0-5.947,6.122Z" transform="translate(-515.83 -453.175)" fill="#beb1a4"/>
      <path id="Path_72" data-name="Path 72" d="M597.152,661.72c2.1,1.061,10.127.329,10.127.329s-4.178-6.888-6.286-7.955a4.268,4.268,0,1,0-3.841,7.62Z" transform="translate(-494.471 -525.242)" fill="#beb1a4"/>
      <path id="Path_73" data-name="Path 73" d="M591.6,758.408c1.894,1.4,9.925,2.035,9.925,2.035s-2.957-7.491-4.85-8.9a4.269,4.269,0,1,0-5.075,6.867Z" transform="translate(-490.628 -602.152)" fill="#beb1a4"/>
      <path id="Path_74" data-name="Path 74" d="M645.783,491.265c0,2.355-4.268,9.191-4.268,9.191s-4.266-6.844-4.266-9.191a4.268,4.268,0,0,1,8.531,0Z" transform="translate(-528.152 -393.418)" opacity="0.25"/>
      <path id="Path_75" data-name="Path 75" d="M679.507,544.269c-1.28,1.979-8.577,5.4-8.577,5.4s.133-8.055,1.413-10.034a4.268,4.268,0,1,1,7.162,4.638Z" transform="translate(-554.824 -433.379)" opacity="0.25"/>
      <path id="Path_76" data-name="Path 76" d="M672.127,646.306c-2.1,1.065-10.127.329-10.127.329s4.18-6.888,6.284-7.947a4.268,4.268,0,0,1,3.841,7.62Z" transform="translate(-547.752 -513.109)" opacity="0.25"/>
      <path id="Path_77" data-name="Path 77" d="M653.505,728.438c-1.893,1.4-9.925,2.035-9.925,2.035s2.957-7.491,4.85-8.9a4.269,4.269,0,1,1,5.075,6.867Z" transform="translate(-533.165 -578.418)" opacity="0.25"/>
      <path id="Path_78" data-name="Path 78" d="M622.978,569.917c1.69,1.642,9.572,3.344,9.572,3.344s-1.929-7.822-3.619-9.464a4.268,4.268,0,1,0-5.947,6.122Z" transform="translate(-515.83 -453.175)" opacity="0.25"/>
      <path id="Path_81" data-name="Path 81" d="M250.513,501.77s-5.664-19.229,1.061-33.38a30.37,30.37,0,0,0,2.455-19.052,51.076,51.076,0,0,0-2.705-8.948" transform="translate(-220.122 -356.403)" fill="none" stroke="#535461" stroke-miterlimit="10" stroke-width="2"/>
      <path id="Path_82" data-name="Path 82" d="M250.605,381.695c0,2.355-4.268,9.191-4.268,9.191s-4.268-6.833-4.268-9.191a4.268,4.268,0,0,1,8.531,0Z" transform="translate(-215.202 -306.647)" fill="#beb1a4"/>
      <path id="Path_83" data-name="Path 83" d="M284.357,435.09c-1.28,1.979-8.577,5.4-8.577,5.4s.133-8.055,1.413-10.034a4.268,4.268,0,1,1,7.165,4.638Z" transform="translate(-241.897 -346.989)" fill="#beb1a4"/>
      <path id="Path_84" data-name="Path 84" d="M276.967,536.452c-2.1,1.061-10.127.329-10.127.329s4.18-6.888,6.284-7.947a4.268,4.268,0,1,1,3.841,7.62Z" transform="translate(-234.817 -426.047)" fill="#beb1a4"/>
      <path id="Path_85" data-name="Path 85" d="M258.345,618.918c-1.894,1.4-9.925,2.035-9.925,2.035s2.957-7.491,4.85-8.9a4.269,4.269,0,0,1,5.075,6.867Z" transform="translate(-220.23 -491.687)" fill="#beb1a4"/>
      <path id="Path_86" data-name="Path 86" d="M227.818,460.4c1.69,1.642,9.572,3.344,9.572,3.344s-1.929-7.822-3.619-9.464a4.268,4.268,0,1,0-5.947,6.122Z" transform="translate(-202.895 -366.444)" fill="#beb1a4"/>
      <path id="Path_87" data-name="Path 87" d="M202,552.232c2.1,1.061,10.127.329,10.127.329s-4.18-6.887-6.284-7.947a4.268,4.268,0,1,0-3.841,7.62Z" transform="translate(-181.545 -438.543)" fill="#beb1a4"/>
      <path id="Path_88" data-name="Path 88" d="M196.408,648.888c1.894,1.4,9.926,2.035,9.926,2.035s-2.957-7.491-4.85-8.9a4.269,4.269,0,0,0-5.075,6.867Z" transform="translate(-177.669 -515.421)" fill="#beb1a4"/>
      <path id="Path_89" data-name="Path 89" d="M250.605,381.695c0,2.355-4.268,9.191-4.268,9.191s-4.268-6.833-4.268-9.191a4.268,4.268,0,0,1,8.531,0Z" transform="translate(-215.202 -306.647)" opacity="0.25"/>
      <path id="Path_90" data-name="Path 90" d="M284.357,435.09c-1.28,1.979-8.577,5.4-8.577,5.4s.133-8.055,1.413-10.034a4.268,4.268,0,1,1,7.165,4.638Z" transform="translate(-241.897 -346.989)" fill="#f4d6cf" opacity="0.25"/>
      <path id="Path_91" data-name="Path 91" d="M276.967,536.452c-2.1,1.061-10.127.329-10.127.329s4.18-6.888,6.284-7.947a4.268,4.268,0,1,1,3.841,7.62Z" transform="translate(-234.817 -426.047)" fill="#d3ab65" opacity="0.25"/>
      <path id="Path_92" data-name="Path 92" d="M258.345,618.918c-1.894,1.4-9.925,2.035-9.925,2.035s2.957-7.491,4.85-8.9a4.269,4.269,0,0,1,5.075,6.867Z" transform="translate(-220.23 -491.687)" opacity="0.25"/>
      <path id="Path_93" data-name="Path 93" d="M227.818,460.4c1.69,1.642,9.572,3.344,9.572,3.344s-1.929-7.822-3.619-9.464a4.268,4.268,0,1,0-5.947,6.122Z" transform="translate(-202.895 -366.444)" opacity="0.25"/>
      <path id="Path_94" data-name="Path 94" d="M202,552.232c2.1,1.061,10.127.329,10.127.329s-4.18-6.887-6.284-7.947a4.268,4.268,0,1,0-3.841,7.62Z" transform="translate(-181.545 -438.543)" opacity="0.25"/>
      <path id="Path_95" data-name="Path 95" d="M196.408,648.888c1.894,1.4,9.926,2.035,9.926,2.035s-2.957-7.491-4.85-8.9a4.269,4.269,0,0,0-5.075,6.867Z" transform="translate(-177.669 -515.421)" opacity="0.25"/>
      <path id="Path_96" data-name="Path 96" d="M355.777,637.679s-3.065-10.4.574-18.072a16.438,16.438,0,0,0,1.33-10.315,27.652,27.652,0,0,0-1.457-4.842" transform="translate(-304.293 -486.325)" fill="none" stroke="#535461" stroke-miterlimit="10" stroke-width="2"/>
      <path id="Path_97" data-name="Path 97" d="M355.809,572.39c0,1.276-2.31,4.975-2.31,4.975s-2.31-3.7-2.31-4.975a2.31,2.31,0,0,1,4.619,0Z" transform="translate(-301.616 -459.107)" fill="#beb1a4"/>
      <path id="Path_98" data-name="Path 98" d="M374.072,601.543c-.693,1.072-4.642,2.913-4.642,2.913s.071-4.37.766-5.431a2.31,2.31,0,1,1,3.879,2.512Z" transform="translate(-316.06 -481.193)" fill="#beb1a4"/>
      <path id="Path_99" data-name="Path 99" d="M370.073,656.532c-1.138.574-5.483.177-5.483.177s2.264-3.729,3.4-4.3a2.311,2.311,0,1,1,2.081,4.126Z" transform="translate(-312.227 -524.106)" fill="#beb1a4"/>
      <path id="Path_100" data-name="Path 100" d="M359.995,701.139c-1.026.76-5.375,1.1-5.375,1.1s1.6-4.058,2.626-4.815a2.31,2.31,0,1,1,2.749,3.714Z" transform="translate(-304.332 -559.594)" fill="#beb1a4"/>
      <path id="Path_101" data-name="Path 101" d="M343.453,615.278c.916.888,5.179,1.81,5.179,1.81s-1.04-4.234-1.96-5.123a2.31,2.31,0,0,0-3.219,3.315Z" transform="translate(-294.934 -491.759)" fill="#beb1a4"/>
      <path id="Path_102" data-name="Path 102" d="M329.656,665.072c1.138.574,5.483.177,5.483.177s-2.258-3.729-3.4-4.3a2.311,2.311,0,1,0-2.081,4.126Z" transform="translate(-283.555 -530.869)" fill="#beb1a4"/>
      <path id="Path_103" data-name="Path 103" d="M326.437,717.319c1.026.76,5.375,1.1,5.375,1.1s-1.6-4.058-2.626-4.815a2.31,2.31,0,0,0-2.749,3.714Z" transform="translate(-281.272 -572.407)" fill="#beb1a4"/>
      <path id="Path_104" data-name="Path 104" d="M355.809,572.39c0,1.276-2.31,4.975-2.31,4.975s-2.31-3.7-2.31-4.975a2.31,2.31,0,0,1,4.619,0Z" transform="translate(-301.616 -459.107)" fill="#fff" opacity="0.5"/>
      <path id="Path_105" data-name="Path 105" d="M374.072,601.543c-.693,1.072-4.642,2.913-4.642,2.913s.071-4.37.766-5.431a2.31,2.31,0,1,1,3.879,2.512Z" transform="translate(-316.06 -481.193)" fill="#fff" opacity="0.5"/>
      <path id="Path_106" data-name="Path 106" d="M370.073,656.532c-1.138.574-5.483.177-5.483.177s2.264-3.729,3.4-4.3a2.311,2.311,0,1,1,2.081,4.126Z" transform="translate(-312.227 -524.106)" fill="#fff" opacity="0.5"/>
      <path id="Path_107" data-name="Path 107" d="M359.995,701.139c-1.026.76-5.375,1.1-5.375,1.1s1.6-4.058,2.626-4.815a2.31,2.31,0,1,1,2.749,3.714Z" transform="translate(-304.332 -559.594)" fill="#fff" opacity="0.5"/>
      <path id="Path_108" data-name="Path 108" d="M343.453,615.278c.916.888,5.179,1.81,5.179,1.81s-1.04-4.234-1.96-5.123a2.31,2.31,0,0,0-3.219,3.315Z" transform="translate(-294.934 -491.759)" fill="#fff" opacity="0.5"/>
      <path id="Path_109" data-name="Path 109" d="M329.656,665.072c1.138.574,5.483.177,5.483.177s-2.258-3.729-3.4-4.3a2.311,2.311,0,1,0-2.081,4.126Z" transform="translate(-283.555 -530.869)" fill="#fff" opacity="0.5"/>
      <path id="Path_110" data-name="Path 110" d="M326.437,717.319c1.026.76,5.375,1.1,5.375,1.1s-1.6-4.058-2.626-4.815a2.31,2.31,0,0,0-2.749,3.714Z" transform="translate(-281.272 -572.407)" fill="#fff" opacity="0.5"/>
      <path id="Path_111" data-name="Path 111" d="M191.972,468.344a.312.312,0,1,0-.312-.312A.312.312,0,0,0,191.972,468.344Z" transform="translate(-175.281 -378.046)" fill="#72351c"/>
      <path id="Path_112" data-name="Path 112" d="M454.868,141.886l2.274,4.334a7.7,7.7,0,0,1,1.04,2.807c.117,1.209-.362,2.416-.248,3.625a6.646,6.646,0,0,0,1.4,3.121c4.328,5.972,13.007,9.68,21.526,9.2-3.221,1.361-6.9,1.775-10.5,2.166a21.482,21.482,0,0,1-5.242.139,16.187,16.187,0,0,1-4.465-1.413,22.246,22.246,0,0,1-7.333-4.848,8.385,8.385,0,0,1-2.439-7.268c.191-.893.576-1.754.732-2.651.235-1.357-.058-2.753.266-4.1.283-1.167,1.018-2.233,1.346-3.392.3-1.04-.714-2.547.042-3.329C454.084,140.471,454.541,141.262,454.868,141.886Z" transform="translate(-380.453 -118.74)" fill="url(#linear-gradient-3)"/>
      <path id="Path_113" data-name="Path 113" d="M345.144,256.669l11.684-15.606-1.846-18.411,25.923-2.091-.1-3.71,5.739,12.206,17.423,16.607.121.173,3.993-2-15.19-18.38-7.166-12.208-.017-.056a14.39,14.39,0,0,0-13.224-9.988,15.082,15.082,0,0,1-3.363-.366c-1.64-.6-.82-6.6-.82-6.6l-11.068,1.2a53.642,53.642,0,0,1,1.789,5.069,6.659,6.659,0,0,1-3.08,7.585c-3.375,1.989-10.173,5.433-9.264,8.858,1.436,5.41,2.971,18.1,2.971,18.1l-6.765,19.008" transform="translate(-295.043 -163.056)" fill="url(#linear-gradient-4)"/>
      <path id="Path_114" data-name="Path 114" d="M318.948,483.76s-9.224,8.6-5.329,8.6,7.585-8,7.585-8" transform="translate(-271.102 -390.748)" fill="url(#linear-gradient-4)"/>
      <path id="Path_115" data-name="Path 115" d="M641.185,425.2,641,424.97l-4,2c.791,1.1,5.262,7.16,7.872,6.432C647.745,432.6,641.185,425.2,641.185,425.2Z" transform="translate(-527.954 -344.191)" fill="url(#linear-gradient-6)"/>
      <path id="Path_116" data-name="Path 116" d="M487.715,711.67s2.05,10.2-1.026,12.606-4.919,1.8-4.919,1.8V712.269Z" transform="translate(-405.024 -571.234)" fill="url(#linear-gradient-7)"/>
      <path id="Path_117" data-name="Path 117" d="M314.421,515.52s-3.768,4.4-2.333,5.4,4.717.4,4.925,2.607,7.379,1.6,7.379,1.6,7.789,4.8,14.358,3.6,18.632-2.809,18.632-2.809l6.559-.208s5.335-2.6,6.361-2.185,4.919-3,3.485-5.41S314.421,515.52,314.421,515.52Z" transform="translate(-270.392 -415.9)" fill="url(#linear-gradient-8)"/>
      <g id="Group_1" data-name="Group 1" transform="translate(41.37 99.62)" opacity="0.2">
        <path id="Path_118" data-name="Path 118" d="M314.421,515.52s-3.768,4.4-2.333,5.4,4.717.4,4.925,2.607,7.379,1.6,7.379,1.6,7.789,4.8,14.358,3.6,18.632-2.809,18.632-2.809l6.559-.208s5.335-2.6,6.361-2.185,4.919-3,3.485-5.41S314.421,515.52,314.421,515.52Z" transform="translate(-311.762 -515.52)" fill="url(#linear-gradient-8)"/>
      </g>
      <path id="Path_119" data-name="Path 119" d="M486.437,525.9l-2.869,18.209s2.256,4.8-2.256,12.006l-.82,4-5.535.6L472.91,520.3Z" transform="translate(-398.008 -419.685)" fill="url(#linear-gradient-10)"/>
      <g id="Group_2" data-name="Group 2" transform="translate(62.398 101.616)" opacity="0.1">
        <path id="Path_120" data-name="Path 120" d="M412.82,527.112l5.739,14.414s1.026,6,.624,7.2-1.026,12.805,1.23,16.407,5.329,17.208,5.329,17.208l6.149-.6s-2.264-3.806-2.264-6.211v-11.4a65.729,65.729,0,0,0-1.436-13.407l.547-3.745a10.689,10.689,0,0,0-.1-3.7l-3.723-18.172Z" transform="translate(-412.82 -525.11)" fill="url(#linear-gradient-11)"/>
      </g>
      <path id="Path_121" data-name="Path 121" d="M410.85,527.112l5.739,14.414s1.026,6,.624,7.2-1.026,12.805,1.23,16.407,5.329,17.208,5.329,17.208l6.149-.6s-2.264-3.806-2.264-6.211v-11.4a65.731,65.731,0,0,0-1.436-13.407l.547-3.745a10.688,10.688,0,0,0-.1-3.7L422.95,525.11Z" transform="translate(-348.862 -423.494)" fill="url(#linear-gradient-11)"/>
      <path id="Path_122" data-name="Path 122" d="M469.556,797.859s1.23,3.6,0,4.6-.814,7.6-.814,7.6,7.585,3,8.608-1.8c0,0-2.05-9-1.64-11.005Z" transform="translate(-394.654 -639.015)" fill="url(#linear-gradient-13)"/>
      <g id="Group_3" data-name="Group 3" transform="translate(42.516 54.171)" opacity="0.1">
        <path id="Path_123" data-name="Path 123" d="M345.147,300.121s10.044-6.8,15.373,0c0,0,1.23,8.4,0,10,0,0-1.026,6.6.624,7.6s2.869,4.2,2.869,4.2,5.945,2.6,6.765,4.4,9.428,19.809,9.428,19.809-11.478,6-15.577,5.41-13.109,0-13.109,0-4.919-5.2-13.733-2.8-20.517-3.816-20.517-3.816l18.047-23.8s3.075-4,1.64-8.6a48.935,48.935,0,0,1-1.64-10.8S335.922,296.921,345.147,300.121Z" transform="translate(-317.27 -297.097)" fill="url(#linear-gradient-14)"/>
      </g>
      <path id="Path_124" data-name="Path 124" d="M345.218,298.2s10.044-6.8,15.373,0c0,0,1.23,8.4,0,10,0,0-1.026,6.6.624,7.6s2.869,4.2,2.869,4.2,5.945,2.6,6.765,4.4,9.428,19.809,9.428,19.809-11.478,6-15.577,5.41-13.109,0-13.109,0-4.919-5.2-13.733-2.8-20.5-3.8-20.5-3.8l18.028-23.819s3.075-4,1.64-8.6a48.946,48.946,0,0,1-1.64-10.806S335.994,295,345.218,298.2Z" transform="translate(-274.825 -241.406)" fill="url(#linear-gradient-11)"/>
      <path id="Path_125" data-name="Path 125" d="M475.38,232.938s6.594-.535,8.244,1.631" transform="translate(-399.964 -192.071)" opacity="0.1" fill="url(#linear-gradient-16)"/>
      <path id="Path_126" data-name="Path 126" d="M392.86,263.047s4.786-4.461,7.453-3.789" transform="translate(-334.615 -212.906)" opacity="0.1" fill="url(#linear-gradient-17)"/>
      <g id="Group_4" data-name="Group 4" transform="translate(62.808 33.184)" opacity="0.1">
        <path id="Path_127" data-name="Path 127" d="M414.79,197.439s.416,1.011.928,2.424a8.563,8.563,0,0,0,9.961.35,23.976,23.976,0,0,1,.179-3.972Z" transform="translate(-414.79 -196.24)" fill="url(#linear-gradient-18)"/>
      </g>
      <ellipse id="Ellipse_1" data-name="Ellipse 1" cx="8.404" cy="8.205" rx="8.404" ry="8.205" transform="translate(59.939 22.177)" fill="url(#linear-gradient-17)"/>
      <g id="Group_5" data-name="Group 5" transform="translate(47.265 17.305)" opacity="0.1">
        <path id="Path_128" data-name="Path 128" d="M369.827,126.34c-.439-1.492-1.18-4.266-2.73-4.611a7.308,7.308,0,0,1-1-.223,6.413,6.413,0,0,1-1.583-1.217c-1.157-.932-3.14.243-4.632.094a8.76,8.76,0,0,0-4.162.287c-2.607,1.04-3.6,4.089-5.473,6.147a23.356,23.356,0,0,1-5.083,3.644,10.012,10.012,0,0,0-4.282,4.407,9.446,9.446,0,0,0-.4,4.316,29.6,29.6,0,0,0,3.423,11.392,13.439,13.439,0,0,1,1.425,3.121,3.477,3.477,0,0,1-.668,3.225c-1.132,1.176-3.057,1.04-4.578,1.665a6.636,6.636,0,0,0,4.946,1.742,11.561,11.561,0,0,0,5.1-1.611,20.267,20.267,0,0,0,8.76-10.273,10.651,10.651,0,0,0,.793-6.195,18.783,18.783,0,0,0-2.383-4.892,8.175,8.175,0,0,1-1.384-5.163,6.09,6.09,0,0,1,2.761-3.931,9.434,9.434,0,0,1,4.613-1.74C364.9,126.587,370.258,127.834,369.827,126.34Z" transform="translate(-340.09 -119.926)" fill="url(#linear-gradient-20)"/>
      </g>
      <path id="Path_129" data-name="Path 129" d="M368.827,125.38c-.439-1.492-1.18-4.266-2.73-4.611a7.308,7.308,0,0,1-1-.223,6.414,6.414,0,0,1-1.583-1.217c-1.157-.932-3.14.243-4.632.094a8.76,8.76,0,0,0-4.162.287c-2.607,1.04-3.6,4.089-5.473,6.147a23.355,23.355,0,0,1-5.083,3.644,10.012,10.012,0,0,0-4.282,4.407,9.447,9.447,0,0,0-.4,4.316,29.6,29.6,0,0,0,3.423,11.393,13.437,13.437,0,0,1,1.425,3.121,3.477,3.477,0,0,1-.668,3.225c-1.132,1.176-3.057,1.04-4.578,1.665a6.636,6.636,0,0,0,4.946,1.742,11.561,11.561,0,0,0,5.1-1.611,20.267,20.267,0,0,0,8.76-10.273,10.651,10.651,0,0,0,.793-6.195,18.784,18.784,0,0,0-2.383-4.892,8.174,8.174,0,0,1-1.384-5.163,6.09,6.09,0,0,1,2.761-3.931,9.434,9.434,0,0,1,4.613-1.74C363.9,125.632,369.262,126.88,368.827,125.38Z" transform="translate(-292.034 -101.861)" fill="url(#linear-gradient-21)"/>
      <path id="Path_130" data-name="Path 130" d="M490.664,393.85a15.3,15.3,0,0,1-8.4,2" transform="translate(-405.412 -319.547)" opacity="0.1" fill="url(#linear-gradient-22)"/>
      <path id="Path_131" data-name="Path 131" d="M489.291,412.12s-10.044,3.8-13.941,3.4" transform="translate(-399.94 -334.015)" opacity="0.1" fill="url(#linear-gradient-23)"/>
      <path id="Path_132" data-name="Path 132" d="M414.3,361.191s10.864,1,12.708-1c0,0,5.945,1.8,9.838,0" transform="translate(-351.594 -292.891)" opacity="0.1" fill="url(#linear-gradient-24)"/>
      <path id="Path_133" data-name="Path 133" d="M456.917,150.731l2.16,4.214a7.8,7.8,0,0,1,1,2.73c.112,1.176-.343,2.349-.235,3.525a6.47,6.47,0,0,0,1.332,3.028c4.11,5.808,12.345,9.414,20.434,8.948-3.057,1.323-6.552,1.725-9.969,2.106a19.936,19.936,0,0,1-4.975.135,15.24,15.24,0,0,1-4.239-1.373,20.986,20.986,0,0,1-6.96-4.715,8.261,8.261,0,0,1-2.324-7.054c.181-.868.547-1.706.7-2.578.225-1.319-.056-2.676.254-3.983.268-1.134.966-2.17,1.278-3.3.283-1.02-.676-2.476.04-3.244C456.172,149.357,456.6,150.123,456.917,150.731Z" transform="translate(-382.243 -125.78)" fill="#252223"/>
      <path id="Path_134" data-name="Path 134" d="M352.751,262.378l11.089-15.19-1.752-17.9,24.6-2.031-.092-3.608,5.448,11.861,16.538,16.149.114.166,3.793-1.937-14.408-17.874-6.811-11.861-.017-.054a13.7,13.7,0,0,0-12.551-9.707,13.951,13.951,0,0,1-3.192-.356c-1.556-.585-.778-6.421-.778-6.421l-10.506,1.167s.976,2.389,1.7,4.927A6.54,6.54,0,0,1,363,217.089c-3.2,1.935-9.657,5.283-8.794,8.613,1.363,5.254,2.822,17.608,2.822,17.608l-6.421,18.484" transform="translate(-301.156 -168.9)" fill="#f0898b"/>
      <path id="Path_135" data-name="Path 135" d="M327.892,483.16s-8.756,8.367-5.058,8.367,7.2-7.776,7.2-7.776" transform="translate(-278.439 -390.273)" fill="#fdb797"/>
      <path id="Path_136" data-name="Path 136" d="M633.754,426.221l-.183-.221-3.791,1.946c.749,1.074,4.994,6.96,7.472,6.253C639.98,433.42,633.754,426.221,633.754,426.221Z" transform="translate(-522.236 -345.007)" fill="#fdb797"/>
      <path id="Path_137" data-name="Path 137" d="M488.083,704.76s1.946,9.923-.974,12.258-4.669,1.752-4.669,1.752V705.345Z" transform="translate(-405.555 -565.762)" fill="#333"/>
      <path id="Path_138" data-name="Path 138" d="M323.593,514s-3.579,4.284-2.214,5.256,4.476.389,4.669,2.53,7,1.556,7,1.556,7.393,4.669,13.619,3.5,17.706-2.724,17.706-2.724l6.226-.2s5.058-2.53,6.034-2.141,4.669-2.913,3.309-5.254S323.593,514,323.593,514Z" transform="translate(-277.762 -414.696)" fill="#f0898b"/>
      <path id="Path_139" data-name="Path 139" d="M323.593,514s-3.579,4.284-2.214,5.256,4.476.389,4.669,2.53,7,1.556,7,1.556,7.393,4.669,13.619,3.5,17.706-2.724,17.706-2.724l6.226-.2s5.058-2.53,6.034-2.141,4.669-2.913,3.309-5.254S323.593,514,323.593,514Z" transform="translate(-277.762 -414.696)" opacity="0.2"/>
      <path id="Path_140" data-name="Path 140" d="M486.847,524.138l-2.724,17.714s2.141,4.669-2.141,11.673l-.778,3.891L475.95,558,474,518.69Z" transform="translate(-398.871 -418.41)" fill="#fdb797"/>
      <path id="Path_141" data-name="Path 141" d="M417,525.316l5.448,14s.974,5.837.585,7-.974,12.452,1.167,15.954S429.258,579,429.258,579l5.845-.57s-2.141-3.7-2.141-6.034V561.31a65.411,65.411,0,0,0-1.363-13.036l.52-3.643a10.643,10.643,0,0,0-.1-3.591l-3.537-17.668Z" transform="translate(-353.732 -422.116)" opacity="0.1"/>
      <path id="Path_142" data-name="Path 142" d="M415.13,525.316l5.448,14s.974,5.837.585,7-.974,12.452,1.167,15.954,5.05,16.74,5.05,16.74l5.843-.578s-2.141-3.7-2.141-6.034V561.31a65.412,65.412,0,0,0-1.363-13.036l.52-3.643a10.643,10.643,0,0,0-.1-3.591L426.6,523.37Z" transform="translate(-352.251 -422.116)" fill="#fdb797"/>
      <path id="Path_143" data-name="Path 143" d="M470.8,788.555s1.167,3.5,0,4.476-.778,7.393-.778,7.393,7.2,2.913,8.171-1.752c0,0-1.946-8.756-1.556-10.7Z" transform="translate(-395.672 -631.658)" fill="#333"/>
      <path id="Path_144" data-name="Path 144" d="M352.76,304.6s9.534-6.615,14.593,0c0,0,1.167,8.171,0,9.728,0,0-.974,6.421.585,7.393s2.724,4.087,2.724,4.087,5.643,2.53,6.421,4.28,8.948,19.262,8.948,19.262-10.893,5.837-14.786,5.252-12.452,0-12.452,0-4.671-5.058-13.036-2.724-19.456-3.7-19.456-3.7l17.121-23.145s2.913-3.891,1.556-8.367a49.112,49.112,0,0,1-1.556-10.506S344.006,301.488,352.76,304.6Z" transform="translate(-281.905 -246.541)" opacity="0.1"/>
      <path id="Path_145" data-name="Path 145" d="M352.76,302.731s9.534-6.615,14.593,0c0,0,1.167,8.171,0,9.728,0,0-.974,6.421.585,7.393s2.724,4.087,2.724,4.087,5.641,2.53,6.419,4.28,8.948,19.262,8.948,19.262-10.891,5.83-14.784,5.252-12.452,0-12.452,0-4.671-5.058-13.036-2.724-19.456-3.7-19.456-3.7l17.121-23.151s2.913-3.891,1.556-8.367a49.112,49.112,0,0,1-1.556-10.506S344.006,299.626,352.76,302.731Z" transform="translate(-281.905 -245.06)" fill="#f0898b"/>
      <path id="Path_146" data-name="Path 146" d="M476.38,239.273s6.259-.52,7.82,1.581" transform="translate(-400.756 -197.089)" fill="#72351c" opacity="0.1"/>
      <path id="Path_147" data-name="Path 147" d="M398.05,268.546s4.54-4.339,7.075-3.683" transform="translate(-338.725 -217.347)" fill="#72351c" opacity="0.1"/>
      <path id="Path_148" data-name="Path 148" d="M418.87,204.749s.4.982.88,2.355a7.972,7.972,0,0,0,9.455.339,23.878,23.878,0,0,1,.171-3.864Z" transform="translate(-355.213 -168.869)" fill="#72351c" opacity="0.1"/>
      <circle id="Ellipse_2" data-name="Ellipse 2" cx="7.978" cy="7.978" r="7.978" transform="translate(60.931 24.012)" fill="#fdb797"/>
      <path id="Path_149" data-name="Path 149" d="M376.117,135.656c-.416-1.457-1.119-4.147-2.593-4.484a6.794,6.794,0,0,1-.949-.208,6.046,6.046,0,0,1-1.5-1.184c-1.1-.905-2.982.237-4.4.092a8.146,8.146,0,0,0-3.954.279c-2.474,1.022-3.417,3.974-5.2,5.976a21.939,21.939,0,0,1-4.825,3.537,9.644,9.644,0,0,0-4.062,4.284,9.423,9.423,0,0,0-.377,4.2,29.3,29.3,0,0,0,3.25,11.076,13.235,13.235,0,0,1,1.353,3.036,3.468,3.468,0,0,1-.624,3.136c-1.074,1.142-2.9,1.015-4.353,1.611a6.212,6.212,0,0,0,4.694,1.694,10.812,10.812,0,0,0,4.846-1.565,19.629,19.629,0,0,0,8.323-9.988,10.6,10.6,0,0,0,.753-6.022,18.432,18.432,0,0,0-2.262-4.757,8.048,8.048,0,0,1-1.315-5.021,5.917,5.917,0,0,1,2.62-3.822,8.831,8.831,0,0,1,4.37-1.69C371.443,135.895,376.533,137.108,376.117,135.656Z" transform="translate(-298.994 -110.146)" fill="#72351c" opacity="0.1"/>
      <path id="Path_150" data-name="Path 150" d="M375.177,134.726c-.416-1.457-1.119-4.147-2.593-4.484a6.794,6.794,0,0,1-.949-.208,6.046,6.046,0,0,1-1.5-1.184c-1.1-.905-2.982.237-4.4.092a8.145,8.145,0,0,0-3.954.279c-2.474,1.022-3.417,3.974-5.2,5.976a21.939,21.939,0,0,1-4.825,3.537,9.577,9.577,0,0,0-4.062,4.284,9.423,9.423,0,0,0-.377,4.2,29.3,29.3,0,0,0,3.25,11.076,13.236,13.236,0,0,1,1.353,3.036,3.468,3.468,0,0,1-.624,3.136c-1.074,1.142-2.9,1.015-4.353,1.611a6.212,6.212,0,0,0,4.694,1.694,10.812,10.812,0,0,0,4.846-1.565,19.629,19.629,0,0,0,8.323-9.988,10.6,10.6,0,0,0,.753-6.022,18.431,18.431,0,0,0-2.262-4.757,8.048,8.048,0,0,1-1.315-5.021,5.917,5.917,0,0,1,2.62-3.822,8.831,8.831,0,0,1,4.37-1.69C370.505,134.965,375.593,136.176,375.177,134.726Z" transform="translate(-298.25 -109.409)" fill="#252223"/>
      <path id="Path_151" data-name="Path 151" d="M490.888,395.74a14.262,14.262,0,0,1-7.978,1.946" transform="translate(-405.927 -321.044)" fill="#72351c" opacity="0.1"/>
      <path id="Path_152" data-name="Path 152" d="M489.65,413.5s-9.534,3.7-13.23,3.309" transform="translate(-400.788 -335.108)" fill="#72351c" opacity="0.1"/>
      <path id="Path_153" data-name="Path 153" d="M418.4,363.984s10.313.974,12.069-.974c0,0,5.643,1.752,9.339,0" transform="translate(-354.84 -295.124)" fill="#72351c" opacity="0.1"/>
      <path id="Path_154" data-name="Path 154" d="M258.8,366.93,248.32,380.387l-.42,2.1Z" transform="translate(-196.305 -290.581)" fill="#72351c" opacity="0.1"/>
      <path id="Path_155" data-name="Path 155" d="M941.374,142.435l-6.933-2.37a1,1,0,0,0-1.269.624l-2.376,6.931a1,1,0,0,0,.624,1.269l6.933,2.37a1,1,0,0,0,1.269-.624l2.37-6.933A1,1,0,0,0,941.374,142.435Zm-2.033,2.8c-.015.056-.035.114-.054.169a3.894,3.894,0,0,1-6.717,1.172,2.871,2.871,0,0,0,.306.123,2.736,2.736,0,0,0,1.792,0,1.367,1.367,0,0,1-.9-1.309,1.471,1.471,0,0,0,.591.175,1.365,1.365,0,0,1-.6-1.621v-.017a1.366,1.366,0,0,0,.526.362,1.363,1.363,0,0,1-.208-1.271,1.348,1.348,0,0,1,.4-.593,3.876,3.876,0,0,0,2.2,2.262,1.367,1.367,0,0,1,2.607-.416,2.676,2.676,0,0,0,.926-.031,1.361,1.361,0,0,1-.809.518,2.718,2.718,0,0,0,.814.054,2.874,2.874,0,0,1-.868.424Z" transform="translate(-760.573 -118.527)" opacity="0.2"/>
      <path id="Path_156" data-name="Path 156" d="M822.59,254.984l.089,7.327a1,1,0,0,1-.986,1.011l-1.775.021-.046-3.687,1.261-.015.164-1.409-1.442.017-.01-.9c0-.416.1-.687.689-.693h.745l-.015-1.249a10.02,10.02,0,0,0-1.086-.044,1.693,1.693,0,0,0-1.787,1.873l.012,1.04-1.265.015.017,1.407,1.267-.015.046,3.685-4.1.05a1,1,0,0,1-1.011-.986l-.089-7.327a1,1,0,0,1,.986-1.011l7.322-.1A1,1,0,0,1,822.59,254.984Z" transform="translate(-667.545 -208.797)" opacity="0.2"/>
      <path id="Path_157" data-name="Path 157" d="M872.635,358.675l2.289,6.792a.978.978,0,0,1-.624,1.249l-4.738,1.6a5.217,5.217,0,0,0,.144-1.321c-.017-.241-.085-1.226-.085-1.226a1.34,1.34,0,0,0,1.269.179c1.43-.481,2.016-2.141,1.457-3.775a2.935,2.935,0,0,0-3.843-1.752,3.03,3.03,0,0,0-2.164,3.922,2.238,2.238,0,0,0,1.579,1.511c.1.012.146-.023.137-.117s-.033-.416-.05-.581a.148.148,0,0,0-.079-.125,1.95,1.95,0,0,1-.718-.961,2.164,2.164,0,0,1,1.457-2.778,1.974,1.974,0,0,1,2.628,1.261c.431,1.282.085,2.387-.76,2.67a.726.726,0,0,1-.99-.624,9.844,9.844,0,0,0-.139-1.71c-.345-1.022-1.754-.391-1.294.974a1.828,1.828,0,0,0,.379.658c.258,2.765.177,2.83.68,3.908h.048l-1.71.576a.978.978,0,0,1-1.249-.624l-2.289-6.792a.978.978,0,0,1,.624-1.248l6.792-2.289a.978.978,0,0,1,1.251.628Z" transform="translate(-707.652 -291.152)" opacity="0.2"/>
      <path id="Path_158" data-name="Path 158" d="M949.258,265.6a2.705,2.705,0,1,0,1.372-1.563A2.705,2.705,0,0,0,949.258,265.6Zm4.239,1.457a1.765,1.765,0,1,1-1.1-2.241A1.765,1.765,0,0,1,953.5,267.059Zm-3.223-4.765a.624.624,0,1,1-.486.026A.624.624,0,0,1,950.273,262.294Zm1.19-1.494a3.124,3.124,0,0,0-2.376.092,3.182,3.182,0,0,0-1.527,1.823c-.314.782-1.18,3.29-1.415,4.135a2.93,2.93,0,0,0,1.912,3.9c.782.314,3.29,1.18,4.135,1.415a3.128,3.128,0,0,0,2.376-.092,3.182,3.182,0,0,0,1.527-1.823c.314-.782,1.18-3.29,1.415-4.135a3.128,3.128,0,0,0-.092-2.376,3.182,3.182,0,0,0-1.823-1.527C954.813,261.9,952.308,261.037,951.463,260.8Zm4.653,2.786a1.788,1.788,0,0,1,.624,1.278,22.929,22.929,0,0,1-2.023,5.907,1.788,1.788,0,0,1-1.278.624,22.93,22.93,0,0,1-5.907-2.023,1.787,1.787,0,0,1-.624-1.278,22.929,22.929,0,0,1,2.023-5.907,1.787,1.787,0,0,1,1.278-.624,11.747,11.747,0,0,1,3.023.809,11.591,11.591,0,0,1,2.886,1.215Z" transform="translate(-772.622 -214.032)" opacity="0.2"/>
      <path id="Path_159" data-name="Path 159" d="M719.566,343.581l2.264.645-1.713,1.615ZM724.4,339.7l1.794,7.339a1.04,1.04,0,0,1-.757,1.248l-7.349,1.794a1.04,1.04,0,0,1-1.248-.757l-1.794-7.349a1.04,1.04,0,0,1,.757-1.249l7.349-1.794A1.04,1.04,0,0,1,724.4,339.7Zm.021,3.9a10.225,10.225,0,0,0-.608-1.8.98.98,0,0,0-.832-.512,28.386,28.386,0,0,0-5.939,1.448.98.98,0,0,0-.508.832,11.123,11.123,0,0,0,.9,3.675.968.968,0,0,0,.832.5,23.53,23.53,0,0,0,3.007-.566,23.228,23.228,0,0,0,2.93-.884.968.968,0,0,0,.51-.832,10.288,10.288,0,0,0-.289-1.873Z" transform="translate(-589.735 -276.036)" opacity="0.2"/>
    </g>
  </g>
</svg>
